<svg width="256" height="256" viewBox="0 0 256 256" xmlns="http://www.w3.org/2000/svg">
  <!-- Red -->
  <path fill="#EA4335" d="M128 24c28 0 51 10 69 26l-28 28c-11-10-25-16-41-16-31 0-57 21-66 49l-33-26C45 49 83 24 128 24z"/>
  
  <!-- Yellow -->
  <path fill="#FBBC05" d="M62 111c-2 6-3 12-3 17s1 11 3 17l-33 26C21 154 16 141 16 128s5-26 13-37l33 20z"/>
  
  <!-- Green -->
  <path fill="#34A853" d="M128 232c-45 0-83-25-102-61l33-26c9 28 35 49 69 49 20 0 37-6 50-17l29 23c-22 20-50 32-79 32z"/>
  
  <!-- Blue -->
  <path fill="#4285F4" d="M240 128c0-7-1-13-2-19H128v38h63c-3 16-12 30-24 40l29 23c17-16 44-47 44-82z"/>
</svg>